HIERARCHY
ROOT Hips
{
	OFFSET 0.000000 88.474243 0.000000
	CHANNELS 6 Xposition Yposition Zposition Zrotation Yrotation Xrotation 
	JOINT Hips_Spine
	{
		OFFSET 0.000000 0.000000 0.000000
		CHANNELS 3 Zrotation Yrotation Xrotation
		JOINT Spine
		{
			OFFSET 0.005100 8.711998 -0.691000
			CHANNELS 3 Zrotation Yrotation Xrotation
			JOINT Spine1
			{
				OFFSET -0.009200 8.660301 -1.275000
				CHANNELS 3 Zrotation Yrotation Xrotation
				JOINT Spine2
				{
					OFFSET 0.006300 9.852501 -1.857000
					CHANNELS 3 Zrotation Yrotation Xrotation
					JOINT Spine2_Neck
					{
						OFFSET 0.000000 0.000000 0.000000
						CHANNELS 3 Zrotation Yrotation Xrotation
						JOINT Neck
						{
							OFFSET 0.016300 11.420799 -0.263300
							CHANNELS 3 Zrotation Yrotation Xrotation
							End Site #name: Head
							{
								OFFSET -0.019200 9.262405 2.362500
							}
						}
					}
					JOINT Spine2_LeftShoulder
					{
						OFFSET 0.000000 0.000000 0.000000
						CHANNELS 3 Zrotation Yrotation Xrotation
						JOINT LeftShoulder
						{
							OFFSET 5.616900 6.732201 -0.345700
							CHANNELS 3 Zrotation Yrotation Xrotation
							JOINT LeftArm
							{
								OFFSET 10.664888 -0.183372 -2.440700
								CHANNELS 3 Zrotation Yrotation Xrotation
								JOINT LeftForeArm
								{
									OFFSET 27.459126 0.000000 0.000000
									CHANNELS 3 Zrotation Yrotation Xrotation
									End Site #name: LeftHand
									{
										OFFSET 21.306858 0.000000 0.000000
									}
								}
							}
						}
					}
					JOINT Spine2_RightShoulder
					{
						OFFSET 0.000000 0.000000 0.000000
						CHANNELS 3 Zrotation Yrotation Xrotation
						JOINT RightShoulder
						{
							OFFSET -5.580300 6.737503 -0.344400
							CHANNELS 3 Zrotation Yrotation Xrotation
							JOINT RightArm
							{
								OFFSET -10.679335 -0.188484 -2.383900
								CHANNELS 3 Zrotation Yrotation Xrotation
								JOINT RightForeArm
								{
									OFFSET -27.503529 0.000000 0.000000
									CHANNELS 3 Zrotation Yrotation Xrotation
									End Site #name: RightHand
									{
										OFFSET -21.306808 0.000000 0.000000
									}
								}
							}
						}
					}
				}
			}
		}
	}
	JOINT Hips_LeftUpLeg
	{
		OFFSET 0.000000 0.000000 0.000000
		CHANNELS 3 Zrotation Yrotation Xrotation
		JOINT LeftUpLeg
		{
			OFFSET 6.857700 -6.739601 0.312100
			CHANNELS 3 Zrotation Yrotation Xrotation
			JOINT LeftLeg
			{
				OFFSET -0.367590 -34.731552 -4.572400
				CHANNELS 3 Zrotation Yrotation Xrotation
				End Site #name: LeftFoot
				{
					OFFSET 0.367590 -34.656704 -6.067400
				}
			}
		}
	}
	JOINT Hips_RightUpLeg
	{
		OFFSET 0.000000 0.000000 0.000000
		CHANNELS 3 Zrotation Yrotation Xrotation
		JOINT RightUpLeg
		{
			OFFSET -6.876100 -6.733299 0.301000
			CHANNELS 3 Zrotation Yrotation Xrotation
			JOINT RightLeg
			{
				OFFSET 0.347353 -34.795158 -4.515900
				CHANNELS 3 Zrotation Yrotation Xrotation
				End Site #name: RightFoot
				{
					OFFSET -0.347353 -34.589367 -6.070300
				}
			}
		}
	}
}
MOTION
Frames: 15
Frame Time: 0.041667
2.430561 -0.384205 -3.003219 177.941153 62.836211 -175.241964 0.000000 -0.000000 0.000000 3.043793 -5.730918 6.221483 -0.379160 -2.933364 4.989053 0.000000 0.000000 0.000000 0.515752 -2.572592 5.172003 5.037920 -31.105234 0.083780 -0.420987 -2.469866 2.169765 -4.842742 0.898779 -1.422053 -75.830341 -21.837847 6.873541 4.481528 -21.919817 4.897273 -0.235328 -4.033828 3.269320 18.782663 18.415789 5.788879 56.784375 13.825360 -4.832393 -177.085629 67.786962 -172.451786 0.000000 0.000000 -0.000000 -2.922656 15.637946 -10.405230 -0.680410 -30.022367 -10.761431 0.000000 0.000000 -0.000000 -4.954956 -32.648099 -13.124931 -13.406772 -12.109135 21.153365 
2.457844 -0.375378 -3.081572 177.929855 62.826266 -175.371935 0.000000 -0.000000 0.000000 2.988319 -5.778770 6.246583 -0.421124 -2.887824 4.856579 0.000000 0.000000 0.000000 0.482906 -2.542865 5.079466 4.696968 -30.617848 0.182971 -0.444952 -2.445813 2.103840 -4.802877 0.668110 -1.329812 -75.745962 -22.132288 6.939531 4.487072 -21.962543 4.911057 -0.279620 -3.984418 3.159604 18.684910 18.395800 5.662036 56.657145 14.108508 -4.726901 -176.797349 68.900242 -172.153254 0.000000 0.000000 -0.000000 -2.917147 15.531450 -10.399397 -0.694705 -30.041874 -10.798324 0.000000 0.000000 -0.000000 -5.020240 -32.140340 -12.990992 -13.070081 -12.080361 20.988191 
2.486877 -0.363794 -3.155911 177.878020 62.521893 -175.546363 0.000000 -0.000000 0.000000 2.937623 -5.835484 6.271460 -0.457352 -2.840596 4.721502 0.000000 0.000000 0.000000 0.453983 -2.510395 4.983512 4.338184 -30.098138 0.267299 -0.468371 -2.422075 2.038253 -4.758164 0.424389 -1.234775 -75.621373 -22.437138 7.017903 4.492460 -22.062210 4.908838 -0.319617 -3.938153 3.044451 18.560257 18.369161 5.551361 56.544341 14.400715 -4.588874 -176.474103 70.036856 -171.816562 0.000000 0.000000 -0.000000 -2.918036 15.425393 -10.402905 -0.719196 -30.068676 -10.781699 0.000000 0.000000 -0.000000 -5.100964 -31.535905 -12.848130 -12.578471 -11.909547 20.781699 
2.518265 -0.349705 -3.226870 177.792048 61.919325 -175.758715 0.000000 -0.000000 0.000000 2.891832 -5.905895 6.303111 -0.497412 -2.795933 4.589318 0.000000 0.000000 0.000000 0.429653 -2.476724 4.888627 3.983768 -29.536171 0.327663 -0.492400 -2.399032 1.974507 -4.711489 0.183204 -1.143320 -75.478174 -22.748509 7.073749 4.473042 -22.212607 4.873692 -0.355509 -3.898171 2.928388 18.409923 18.330867 5.467933 56.444223 14.687111 -4.439413 -176.139339 71.052859 -171.465453 0.000000 0.000000 -0.000000 -2.918700 15.324095 -10.406623 -0.744069 -30.092529 -10.723756 0.000000 -0.000000 -0.000000 -5.192335 -30.843946 -12.692328 -11.989627 -11.701525 20.534289 
2.552686 -0.333302 -3.294683 177.673115 61.031689 -176.001479 0.000000 -0.000000 0.000000 2.839594 -5.994289 6.338882 -0.544286 -2.754148 4.468285 0.000000 0.000000 0.000000 0.405221 -2.442299 4.801815 3.631203 -28.897881 0.337306 -0.520363 -2.376874 1.915941 -4.665738 -0.079789 -1.041037 -75.309733 -23.069191 7.120681 4.446151 -22.387190 4.822012 -0.396715 -3.863854 2.815479 18.240381 18.260885 5.405071 56.359339 14.963228 -4.274785 -175.837903 71.865461 -171.145333 0.000000 0.000000 -0.000000 -2.917061 15.233561 -10.424158 -0.774958 -30.107626 -10.608768 0.000000 -0.000000 -0.000000 -5.288813 -30.109089 -12.526782 -11.329757 -11.445462 20.248888 
2.590699 -0.314342 -3.359934 177.537815 59.928142 -176.252887 0.000000 -0.000000 0.000000 2.771513 -6.083762 6.385913 -0.599549 -2.714100 4.358185 0.000000 0.000000 0.000000 0.375832 -2.408189 4.724829 3.277172 -28.158647 0.280460 -0.557149 -2.358163 1.862772 -4.616316 -0.367361 -0.928541 -75.133303 -23.379414 7.127335 4.398022 -22.535925 4.736510 -0.443072 -3.830999 2.709953 18.052936 18.181848 5.379003 56.274153 15.221440 -4.185722 -175.622305 72.359975 -170.906606 0.000000 0.000000 -0.000000 -2.920600 15.143433 -10.452373 -0.810519 -30.092513 -10.448254 0.000000 -0.000000 -0.000000 -5.388077 -29.382552 -12.353599 -10.639190 -11.155796 19.931390 
2.633522 -0.293453 -3.422366 177.379850 58.636644 -176.505515 0.000000 -0.000000 0.000000 2.685085 -6.165958 6.445989 -0.664187 -2.675321 4.262732 0.000000 0.000000 0.000000 0.341287 -2.374632 4.665152 2.930382 -27.323875 0.141480 -0.595007 -2.335913 1.819442 -4.559935 -0.684995 -0.805489 -74.963134 -23.640725 7.177975 4.332450 -22.666266 4.641206 -0.497571 -3.798501 2.609619 17.855171 18.103210 5.392546 56.193113 15.462702 -4.150994 -175.523642 72.490342 -170.779275 0.000000 0.000000 -0.000000 -2.930826 15.057923 -10.529645 -0.864002 -30.059781 -10.204740 0.000000 -0.000000 -0.000000 -5.475612 -28.731037 -12.191240 -9.969672 -10.826372 19.613712 
2.681002 -0.271796 -3.483523 177.211948 57.245364 -176.734639 0.000000 -0.000000 0.000000 2.561957 -6.249221 6.527204 -0.736499 -2.638764 4.187671 0.000000 0.000000 0.000000 0.299065 -2.341806 4.620241 2.590349 -26.398462 -0.080605 -0.633936 -2.309559 1.789940 -4.492007 -1.043085 -0.674840 -74.804141 -23.854487 7.200811 4.233627 -22.733477 4.512262 -0.560998 -3.767453 2.521723 17.645101 18.035043 5.452302 56.107895 15.688607 -4.185575 -175.570868 72.200314 -170.792605 0.000000 0.000000 -0.000000 -2.950428 14.972238 -10.664231 -0.941042 -30.010916 -9.899978 0.000000 -0.000000 -0.000000 -5.528613 -28.174964 -12.021236 -9.392441 -10.472637 19.263039 
2.732873 -0.249382 -3.544406 177.063006 55.858662 -176.914183 0.000000 -0.000000 0.000000 2.390239 -6.322421 6.638697 -0.816256 -2.608883 4.129121 0.000000 0.000000 0.000000 0.247161 -2.311496 4.590247 2.294294 -25.390703 -0.375038 -0.678991 -2.282747 1.772877 -4.415600 -1.431692 -0.534815 -74.665643 -24.019632 7.161574 4.100498 -22.731819 4.335239 -0.637845 -3.736294 2.446978 17.425933 17.982114 5.537121 56.035748 15.890253 -4.261068 -175.766848 71.435464 -170.948719 0.000000 0.000000 -0.000000 -2.971616 14.894969 -10.873025 -1.038131 -29.948469 -9.546146 0.000000 -0.000000 -0.000000 -5.582733 -27.846472 -11.875435 -8.904398 -10.101519 18.928019 
2.791364 -0.225710 -3.605473 176.913792 54.493090 -177.060358 0.000000 -0.000000 0.000000 2.161717 -6.396929 6.775138 -0.901569 -2.589794 4.098598 0.000000 0.000000 0.000000 0.189173 -2.283126 4.581520 2.056411 -24.253253 -0.757346 -0.730752 -2.256320 1.769602 -4.337708 -1.834895 -0.388440 -74.523220 -24.148733 7.058448 3.916028 -22.685633 4.109439 -0.730790 -3.707359 2.389840 17.208191 17.966996 5.638153 55.961024 16.106547 -4.446389 -176.078327 70.179917 -171.217089 0.000000 0.000000 -0.000000 -2.994007 14.824892 -11.174557 -1.164682 -29.857047 -9.097996 0.000000 -0.000000 -0.000000 -5.650492 -27.604180 -11.780640 -8.511618 -9.763656 18.652050 
2.858377 -0.200914 -3.667462 176.754530 53.141726 -177.189218 0.000000 -0.000000 0.000000 1.883065 -6.466812 6.943750 -0.998550 -2.578608 4.096150 0.000000 0.000000 0.000000 0.117010 -2.255239 4.590018 1.854019 -23.025004 -1.174470 -0.787669 -2.234020 1.779802 -4.257338 -2.253181 -0.236488 -74.409090 -24.223871 6.889307 3.704408 -22.610553 3.848880 -0.840079 -3.684457 2.349625 16.986435 17.993304 5.731021 55.894118 16.341681 -4.782081 -176.500959 68.397025 -171.602815 0.000000 0.000000 -0.000000 -3.040605 14.756326 -11.532096 -1.303047 -29.747253 -8.614950 0.000000 -0.000000 -0.000000 -5.740475 -27.304121 -11.738146 -8.129867 -9.491670 18.370152 
2.935129 -0.174534 -3.732195 176.580735 51.829607 -177.314099 0.000000 -0.000000 0.000000 1.555084 -6.545016 7.137504 -1.097384 -2.576176 4.110443 0.000000 0.000000 0.000000 0.033455 -2.239014 4.607705 1.682975 -21.856706 -1.648217 -0.850382 -2.217077 1.803388 -4.165140 -2.672913 -0.089645 -74.301278 -24.249491 6.687795 3.476754 -22.476757 3.540682 -0.962742 -3.669039 2.326598 16.765932 18.048124 5.792448 55.837525 16.571235 -5.274484 -176.912480 66.394918 -171.976310 0.000000 0.000000 -0.000000 -3.096771 14.689078 -11.927545 -1.461840 -29.616792 -8.090993 0.000000 -0.000000 -0.000000 -5.871721 -26.882159 -11.738570 -7.705046 -9.272834 18.045730 
3.024446 -0.145287 -3.799591 176.375275 50.695535 -177.449027 0.000000 -0.000000 0.000000 1.176038 -6.642189 7.346032 -1.202674 -2.584996 4.141789 0.000000 0.000000 0.000000 -0.096684 -2.218273 4.644467 1.550404 -20.772814 -2.199196 -0.918132 -2.209102 1.836127 -4.076203 -3.080038 0.055301 -74.191301 -24.249472 6.442456 3.256207 -22.345889 3.215266 -1.096582 -3.659966 2.314247 16.542533 18.148745 5.807047 55.780858 16.796121 -5.952306 -177.306987 64.293025 -172.345210 0.000000 0.000000 -0.000000 -3.156898 14.620298 -12.361052 -1.647739 -29.428050 -7.486473 0.000000 -0.000000 -0.000000 -6.033884 -26.226226 -11.769290 -7.190924 -9.093505 17.648248 
3.126394 -0.112971 -3.869513 176.132302 49.804748 -177.605002 0.000000 -0.000000 0.000000 0.773115 -6.749646 7.558684 -1.310620 -2.605757 4.177245 0.000000 0.000000 0.000000 -0.233119 -2.197895 4.678749 1.412704 -19.679919 -2.753764 -0.986205 -2.209117 1.872271 -3.968422 -3.384241 0.133996 -74.076589 -24.222182 6.189563 3.040531 -22.241190 2.880218 -1.236162 -3.659106 2.306653 16.333457 18.315183 5.758043 55.722850 17.025902 -6.762979 -177.665127 62.080102 -172.688677 0.000000 0.000000 -0.000000 -3.230170 14.570979 -12.816536 -1.841773 -29.207525 -6.853334 0.000000 -0.000000 -0.000000 -6.204931 -25.306461 -11.853391 -6.572305 -8.933499 17.201155 
3.241093 -0.078200 -3.941445 175.853564 49.158786 -177.786848 -0.000000 -0.000000 0.000000 0.378720 -6.861189 7.749120 -1.416085 -2.634077 4.214179 0.000000 0.000000 0.000000 -0.377718 -2.180877 4.708601 1.265856 -18.562438 -3.294945 -1.052643 -2.214530 1.909612 -3.851445 -3.586175 0.159456 -73.955486 -24.169985 5.953396 2.827600 -22.196265 2.534653 -1.378227 -3.665647 2.297073 16.130733 18.527712 5.652977 55.643583 17.272470 -7.727122 -177.982464 59.830550 -172.997132 0.000000 0.000000 -0.000000 -3.335122 14.557638 -13.302420 -2.040057 -29.009040 -6.194161 0.000000 -0.000000 -0.000000 -6.354486 -23.884878 -12.003673 -5.947975 -8.816492 16.723109 
